# xmcd
#
# Track frame offsets:
#	150
#	9464
#	24109
#	41370
#	57666
#	72168
#	88987
#	100975
#	118994
#	136619
#	145933
#	160578
#	177839
#	194135
#	208637
#	225456
#	237444
#	255463
#
# Disc length: 3641
#
# Revision: 1
# Processed by: cddbd v1.5.2PL0 Copyright (c) Steve Scherf et al.
# Submitted via: kJams Pro (development) 1.0patch45.7
#
DISCID=f60e3712
DTITLE=Various Artist - NSC 3012
DYEAR=1994
DGENRE=Country
TTITLE0=George Strait - Don't Make Me Come Over There And Love You
TTITLE1=Garth Brooks - Wild Horses
TTITLE2=Jessica Andrews - Who Am I
TTITLE3=Diamond Rio - One More Day
TTITLE4=Warren Brothers - Move On
TTITLE5=Tim Rushlow - She Miss Him
TTITLE6=Eric Heatherly - Wrong Five O'clock
TTITLE7=Billy Gilman - Oklahoma
TTITLE8=Travis Tritt - It's A Great Day To Be Alive
TTITLE9=George Strait - Vocals - Don't Make Me Come Over There And Love You
TTITLE10=Garth Brooks - Vocals - Wild Horses
TTITLE11=Jessica Andrews - Vocals - Who Am I
TTITLE12=Diamond Rio - Vocals - One More Day
TTITLE13=Warren Brothers - Vocals - Move On
TTITLE14=Tim Rushlow - Vocals - She Miss Him
TTITLE15=Eric Heatherly - Vocals - Wrong Five O'clock
TTITLE16=Billy Gilman - Vocals - Oklahoma
TTITLE17=Travis Tritt - Vocals - It's A Great Day To Be Alive
EXTD=
EXTT0=
EXTT1=
EXTT2=
EXTT3=
EXTT4=
EXTT5=
EXTT6=
EXTT7=
EXTT8=
EXTT9=
EXTT10=
EXTT11=
EXTT12=
EXTT13=
EXTT14=
EXTT15=
EXTT16=
EXTT17=
PLAYORDER=
